<svg width="98" height="78" viewBox="0 0 98 78" fill="none" xmlns="http://www.w3.org/2000/svg">
<g clip-path="url(#clip0_117_24)">
<path d="M56.3698 10.5634C50.5168 10.5673 44.6615 10.5673 38.8088 10.5634C38.0642 10.6642 37.4084 9.93326 37.7088 9.26457C37.8626 8.74012 38.5068 8.62017 39.0021 8.6141H56.1765C56.7278 8.55761 57.1848 8.84793 57.5203 9.23238C57.6846 9.91201 57.1581 10.6502 56.3698 10.5634Z" fill="white"/>
<path d="M55.7524 13.1753C55.4652 13.3125 55.1745 13.4698 54.8413 13.4304C49.6537 13.4121 44.4639 13.4516 39.2763 13.4103C38.2423 13.2026 38.3696 11.5518 39.4419 11.5214C44.6572 11.5123 49.8759 11.5123 55.0934 11.5236C55.9522 11.581 56.1037 12.5804 55.7524 13.1753Z" fill="white"/>
<path d="M39.0565 47.2689V49.919C36.5295 48.7453 34.1552 47.2828 32.0801 45.482C28.8673 42.6846 26.3637 38.9737 25.7134 34.8431C25.6642 31.8297 25.6803 28.8106 25.7028 25.7963C26.4451 25.2135 27.1221 24.5901 27.7493 24.0064C27.7332 26.7514 27.7471 29.4993 27.7406 32.2445C27.5888 35.1911 28.8567 38.038 30.5871 40.4331C32.7166 43.3712 35.7454 45.609 39.0565 47.2689Z" fill="white"/>
<path d="M69.4324 34.5312C69.0638 37.6312 67.5303 40.5243 65.5104 42.9588C62.9056 46.07 59.4365 48.3952 55.6641 50.0976V47.4675C58.7733 45.961 61.6239 43.9479 63.7994 41.3512C65.4709 39.3667 66.7088 37.0299 67.228 34.5331C67.3283 34.056 67.3154 33.5689 67.3154 33.0879C67.3048 30.2631 67.3219 27.4365 67.308 24.6108C67.3785 24.6764 67.447 24.7429 67.5165 24.8106L67.5377 24.8306L67.5589 24.8498C68.1549 25.3712 68.7753 25.8826 69.4311 26.3423C69.4591 29.0715 69.4549 31.8024 69.4324 34.5312Z" fill="white"/>
<path d="M75.6999 26.9214C76.9368 26.5352 77.3083 24.8228 76.19 24.12C75.0855 23.3235 73.3587 24.226 73.524 25.5449C72.2542 25.431 71.0793 24.8419 70.2013 23.9828C70.1533 23.9345 70.1032 23.885 70.0527 23.8346C70.0269 23.8103 70.0025 23.7851 69.9768 23.7599C69.9745 23.759 69.9736 23.7569 69.9736 23.7559C69.8475 23.6299 69.7236 23.4987 69.6284 23.3557C68.5584 22.079 66.8708 19.7869 66.8708 19.7869L66.8698 19.7808C64.8394 17.7268 62.1724 16.1665 59.198 15.7571C57.5319 15.4778 55.8209 15.6351 54.1825 15.994C54.1825 15.4938 54.1802 14.9967 54.1802 14.4984C49.643 14.4984 45.108 14.5024 40.5708 14.4963C40.5634 15.0186 40.5634 15.5421 40.5653 16.0663C38.0138 15.4319 35.2539 15.4401 32.778 16.3566C30.9656 17.0241 29.3099 18.0648 27.9609 19.3848L27.9577 19.3888C27.9577 19.3888 27.9555 19.3909 27.9503 19.3958L27.9195 19.4249C27.8542 19.4896 27.7902 19.5549 27.7252 19.6217V19.6086C27.2456 20.0696 26.1412 21.1759 25.5387 22.1349C25.4596 22.2974 25.3731 22.4565 25.2792 22.612C25.2792 22.6129 25.2782 22.6129 25.2782 22.6141C24.3651 24.1349 22.7981 25.3481 20.9214 25.5567C20.8201 25.1292 20.7825 24.6481 20.4248 24.3296C19.7263 23.5701 18.2683 23.6903 17.7547 24.5868C17.2185 25.3642 17.664 26.3949 18.4491 26.8507C16.5161 32.3439 14.6191 37.8449 12.7041 43.3399C14.2997 45.1328 16.4765 46.711 19.0505 46.817C21.822 46.9109 24.3214 45.3366 26.0624 43.4165C24.112 38.0132 22.3134 32.5595 20.3547 27.1574C23.1404 26.8388 25.2593 24.9126 27.1636 23.1346C28.8757 21.6876 30.8302 20.4392 33.0379 19.7845C35.4774 19.004 38.2361 19.0836 40.5688 20.1486C40.5634 26.888 40.5679 33.6263 40.5656 40.3648L40.5666 40.3639V50.5814C41.2887 50.879 42.0213 51.1553 42.7604 51.4104C42.7669 40.0432 42.7604 28.6782 42.7627 17.3129C42.6816 16.96 42.9251 16.7107 43.1621 16.4808C43.3448 16.4829 43.707 16.489 43.8884 16.4929C44.0273 16.6241 44.166 16.7541 44.3039 16.8871C44.2933 28.568 44.3017 40.2497 44.2998 51.9306C45.1009 52.1605 45.9031 52.4004 46.7158 52.6023C46.7158 41.2552 46.7181 29.9093 46.7158 18.5625C46.7287 18.0119 46.6602 17.4492 46.7885 16.9065C47.0214 16.2318 48.3169 16.3772 48.3298 17.1112C48.3523 28.9494 48.332 40.7915 48.3404 52.6297C49.0367 52.4359 49.7331 52.2394 50.4316 52.0548C50.4776 40.3992 50.4252 28.7417 50.4606 17.0842C50.449 16.5285 51.1238 16.4337 51.5779 16.4671C51.8835 16.7383 52.1247 17.0976 52.0745 17.5139C52.0639 28.8477 52.0916 40.1817 52.0617 51.5155C52.7644 51.2765 53.463 51.0184 54.1539 50.7411V43.8647L54.1828 43.7982V19.9873C55.8489 19.3259 57.703 19.11 59.491 19.3651C62.9228 19.8543 65.9143 21.7975 68.2844 24.1097C69.925 25.5428 71.8303 26.9746 74.1457 27.1532C72.1732 32.7499 70.2344 38.3569 68.2885 43.9619C69.9195 45.6913 72.0439 47.3059 74.6041 47.3895C77.4003 47.5298 79.8952 45.913 81.6671 44.0071C79.6228 38.3299 77.6875 32.6172 75.6999 26.9214ZM24.9601 43.2965C21.2112 43.2986 17.4623 43.2795 13.7156 43.3047C14.7677 40.4799 15.6946 37.6129 16.718 34.7763C17.5726 32.1847 18.5681 29.6311 19.3561 27.0214C21.1321 32.472 23.1178 37.8629 24.9601 43.2965ZM69.3425 43.8644C71.06 38.9685 72.7528 34.0672 74.4619 29.1674C74.651 28.6451 74.8411 28.1216 74.9534 27.5792C75.6561 30.0025 76.5982 32.3603 77.3875 34.7633C78.4524 37.7957 79.4948 40.8331 80.5607 43.8644H69.3425Z" fill="#C29032"/>
<path d="M70.053 23.8346L70.0507 23.8416C70.0272 23.8155 70.0015 23.7881 69.9771 23.7599C70.0028 23.7851 70.0272 23.8103 70.053 23.8346Z" fill="#C29032"/>
<path d="M69.4453 9.38569C62.1591 6.24235 54.8523 3.1403 47.5661 0C40.2699 3.11722 32.9828 6.25237 25.6879 9.3623C25.6708 12.9876 25.7104 16.6159 25.6782 20.2402C26.1523 19.6997 26.6341 19.2187 26.9641 18.902L27.7373 18.1589C27.7534 15.7799 27.7405 13.4021 27.7341 11.0231C34.323 8.19042 40.9331 5.40208 47.504 2.52992C54.1187 5.3213 60.7031 8.1801 67.3091 10.9918C67.3197 13.5825 67.3091 16.1722 67.3145 18.7629L69.4485 21.4574C69.4421 17.4331 69.4495 13.4082 69.4453 9.38569Z" fill="white"/>
</g>
<path d="M82.6886 77.6296L79.3618 65.4048H82.7921L84.6863 73.6184H84.7977L86.7715 65.4048H90.1381L92.1437 73.5706H92.2472L94.1095 65.4048H97.5318L94.213 77.6296H90.6236L88.5224 69.9414H88.3712L86.2701 77.6296H82.6886Z" fill="white"/>
<path d="M70.7621 77.8604C69.9822 77.8604 69.2871 77.7251 68.6769 77.4545C68.0667 77.1786 67.5839 76.7727 67.2284 76.2368C66.8782 75.6956 66.7031 75.0218 66.7031 74.2153C66.7031 73.5361 66.8278 72.9657 67.0772 72.5041C67.3266 72.0425 67.6661 71.6711 68.0959 71.3899C68.5257 71.1087 69.0138 70.8964 69.5603 70.7532C70.1122 70.6099 70.6905 70.5091 71.2954 70.4507C72.0064 70.3765 72.5794 70.3075 73.0145 70.2438C73.4496 70.1748 73.7653 70.074 73.9616 69.9414C74.1579 69.8087 74.2561 69.6124 74.2561 69.3524V69.3047C74.2561 68.8006 74.0969 68.4106 73.7785 68.1347C73.4655 67.8588 73.0198 67.7209 72.4414 67.7209C71.8313 67.7209 71.3458 67.8562 70.985 68.1268C70.6242 68.3921 70.3854 68.7263 70.2687 69.1296L67.1329 68.8749C67.2921 68.1321 67.6051 67.4901 68.072 66.9489C68.539 66.4023 69.1412 65.9832 69.8787 65.6914C70.6215 65.3942 71.4811 65.2457 72.4574 65.2457C73.1365 65.2457 73.7865 65.3253 74.4073 65.4844C75.0334 65.6436 75.5878 65.8903 76.0707 66.2246C76.5588 66.5589 76.9435 66.9887 77.2247 67.5139C77.5059 68.0339 77.6465 68.6574 77.6465 69.3843V77.6296H74.4312V75.9344H74.3356C74.1393 76.3164 73.8767 76.6533 73.5477 76.9452C73.2188 77.2317 72.8235 77.4572 72.3619 77.6217C71.9002 77.7808 71.367 77.8604 70.7621 77.8604ZM71.7331 75.5205C72.2319 75.5205 72.6723 75.4224 73.0543 75.226C73.4363 75.0244 73.7361 74.7538 73.9536 74.4142C74.1712 74.0747 74.2799 73.69 74.2799 73.2602V71.9629C74.1738 72.0319 74.0279 72.0956 73.8422 72.1539C73.6618 72.207 73.4575 72.2574 73.2294 72.3052C73.0012 72.3476 72.7731 72.3874 72.5449 72.4245C72.3168 72.4564 72.1098 72.4856 71.9241 72.5121C71.5262 72.5704 71.1786 72.6633 70.8815 72.7906C70.5844 72.918 70.3536 73.0904 70.1891 73.308C70.0246 73.5202 69.9424 73.7855 69.9424 74.1039C69.9424 74.5655 70.1095 74.9183 70.4438 75.1624C70.7834 75.4011 71.2131 75.5205 71.7331 75.5205Z" fill="white"/>
<path d="M54.6235 77.6296V61.3299H58.0697V74.7883H65.0576V77.6296H54.6235Z" fill="white"/>
<path d="M47.1642 65.4049V67.9517H39.8022V65.4049H47.1642ZM41.4736 62.476H44.8641V73.8731C44.8641 74.1861 44.9118 74.4302 45.0073 74.6053C45.1028 74.7751 45.2355 74.8945 45.4053 74.9634C45.5804 75.0324 45.782 75.0669 46.0101 75.0669C46.1693 75.0669 46.3285 75.0536 46.4877 75.0271C46.6468 74.9953 46.7689 74.9714 46.8538 74.9555L47.387 77.4784C47.2172 77.5315 46.9785 77.5925 46.6707 77.6615C46.363 77.7358 45.9889 77.7809 45.5485 77.7968C44.7314 77.8286 44.0151 77.7198 43.3996 77.4705C42.7895 77.2211 42.3146 76.8338 41.975 76.3085C41.6354 75.7832 41.4683 75.12 41.4736 74.3188V62.476Z" fill="#C29032"/>
<path d="M38.2482 68.8908L35.1443 69.0818C35.0912 68.8165 34.9772 68.5778 34.8021 68.3655C34.627 68.148 34.3962 67.9755 34.1096 67.8482C33.8284 67.7156 33.4915 67.6492 33.0989 67.6492C32.5736 67.6492 32.1305 67.7607 31.7697 67.9835C31.4089 68.201 31.2285 68.4929 31.2285 68.859C31.2285 69.1508 31.3453 69.3975 31.5787 69.5991C31.8122 69.8008 32.2128 69.9626 32.7805 70.0846L34.9931 70.5303C36.1816 70.7744 37.0677 71.167 37.6513 71.7082C38.235 72.2494 38.5268 72.9604 38.5268 73.8412C38.5268 74.6424 38.2907 75.3454 37.8185 75.9503C37.3515 76.5552 36.7095 77.0274 35.8924 77.367C35.0806 77.7012 34.1441 77.8684 33.083 77.8684C31.4647 77.8684 30.1753 77.5315 29.215 76.8576C28.2599 76.1785 27.7001 75.2552 27.5356 74.0879L30.8704 73.9128C30.9712 74.4063 31.2153 74.783 31.6026 75.043C31.9899 75.2977 32.486 75.425 33.0909 75.425C33.6852 75.425 34.1627 75.3109 34.5235 75.0828C34.8896 74.8493 35.0753 74.5495 35.0806 74.1834C35.0753 73.8757 34.9453 73.6237 34.6906 73.4274C34.436 73.2257 34.0433 73.0719 33.5127 72.9657L31.3957 72.5439C30.2019 72.3052 29.3131 71.8913 28.7295 71.3023C28.1511 70.7134 27.862 69.9626 27.862 69.05C27.862 68.2647 28.0742 67.5882 28.4987 67.0205C28.9284 66.4528 29.5307 66.015 30.3053 65.7073C31.0853 65.3995 31.9979 65.2457 33.0432 65.2457C34.5872 65.2457 35.8022 65.572 36.6883 66.2246C37.5797 66.8772 38.0997 67.766 38.2482 68.8908Z" fill="#C29032"/>
<path d="M21.9747 72.4245V65.4048H25.3652V77.6296H22.11V75.4091H21.9827C21.7068 76.1254 21.2478 76.7011 20.6058 77.1362C19.9691 77.5713 19.1918 77.7888 18.2738 77.7888C17.4567 77.7888 16.7378 77.6031 16.117 77.2317C15.4962 76.8603 15.0107 76.3323 14.6605 75.6479C14.3157 74.9634 14.1406 74.1436 14.1353 73.1886V65.4048H17.5257V72.5837C17.531 73.3053 17.7247 73.8757 18.1067 74.2949C18.4887 74.714 19.0008 74.9236 19.6428 74.9236C20.0513 74.9236 20.4333 74.8308 20.7888 74.6451C21.1443 74.454 21.4309 74.1728 21.6484 73.8014C21.8712 73.43 21.98 72.971 21.9747 72.4245Z" fill="#C29032"/>
<path d="M7.94312 61.3299H11.3495V72.6951C11.3495 73.7457 11.1134 74.6583 10.6412 75.433C10.1742 76.2076 9.52427 76.8046 8.69125 77.2237C7.85822 77.6429 6.8899 77.8525 5.78627 77.8525C4.80468 77.8525 3.91329 77.68 3.1121 77.3351C2.31622 76.985 1.68482 76.4544 1.2179 75.7434C0.75098 75.0271 0.520174 74.1277 0.52548 73.0453H3.95574C3.96635 73.4751 4.0539 73.8439 4.21838 74.1516C4.38817 74.454 4.61898 74.6875 4.9108 74.852C5.20793 75.0112 5.55812 75.0908 5.96137 75.0908C6.38584 75.0908 6.74398 75.0006 7.03581 74.8202C7.33294 74.6344 7.55844 74.3638 7.71231 74.0084C7.86618 73.6529 7.94312 73.2151 7.94312 72.6951V61.3299Z" fill="#C29032"/>
<defs>
<clipPath id="clip0_117_24">
<rect width="68.963" height="52.6296" fill="white" transform="translate(12.7041)"/>
</clipPath>
</defs>
</svg>
